<svg width="800" height="800" xmlns="http://www.w3.org/2000/svg">
	<g> 
		<!-- <text font-family="microsoft yahei" font-size="120" y="160" x="160">马</text> -->
		<g id="layer1" transform="translate(0 -852.36)">
			<path id="path4141" fill="#000000" d="m151.82 990.68q4.3028-2.6636 7.3762-3.893 1.4343-0.81958 1.8441 0.20489 0.40979 1.2294-1.0245 1.844-5.3273 3.6881-11.679 12.908-1.0245 1.0245-1.4343-0.2049-0.81959-2.4588-3.0734-4.0979-0.81958-1.0245 0-1.4342 3.0734-2.6636 3.0734-4.9175v-16.596q-2.4587 0-5.5322 0.61469-0.81957 0.40979-1.2294-0.61469-0.40979-1.844-1.8441-3.0734-0.81959-0.61469-0.40979-1.0245 0.40979-0.4098 1.0245 0 3.893 0.81957 7.9909 0.81957v-11.884q-0.2049-4.0979-0.40979-7.1713-0.2049-1.6392 0.81958-1.4342 5.5322 1.844 7.3762 2.6636 1.4343 1.0245-0.20488 1.6392-1.6392 0.81957-2.049 1.8441-0.61468 1.4343-0.61468 2.4588v8.1958q7.786-8.1958 10.45-15.162 0.61468-1.0245 1.2294-0.40979 3.6881 2.8686 6.5566 5.3273 0.61469 0.81958 0.4098 1.2294-0.61469 0.4098-1.844 0.2049-2.049-0.40979-6.3518 2.8685-5.5322 4.7126-10.45 8.1958v1.4343h9.4252q0.61469 0 1.2294-0.61468l3.6881-4.3028q0.61469-0.61468 1.4343 0 2.6636 2.6636 4.5077 4.9175 1.0245 1.4343 0.40979 2.4588-0.61469 0.61468-1.8441 0.81957h-10.655q2.4587 5.3273 5.942 10.655 3.0734 3.893 8.8105 7.9909 0.61469 0.20489 0.2049 1.0245-0.4098 0.81958-1.6392 0.40979-3.4832 1.2294-4.3028 2.8685-0.40978 0.61469-1.0245-0.20489-4.5077-7.786-7.3762-13.728-2.0489-4.9175-2.8685-9.0154h-5.942v16.187zm40.774 0.2049q-0.2049 4.5077-1.844 7.5811-2.4588 4.5078-4.9175 6.147-0.81959 0.8196-1.2294 0.8196-0.20489 0-0.81958-2.4588-1.0245-3.4833-2.0489-4.7126-0.81959-1.6392-4.5077-2.4588-1.6392-0.20489-1.4343-1.8441 0-1.6392 1.6392-1.4343 6.7615 1.8441 9.0154 0.61469 1.2294-0.81957 1.4343-3.4832v-63.722q-0.2049-9.835-0.40979-15.777-0.40979-2.0489 0.61469-1.6391 5.7371 2.4587 7.5811 3.6881 1.0245 1.0245-0.40979 1.8441-1.6392 1.0245-2.049 2.0489-0.61468 2.2538-0.61468 9.835v64.952zm-16.801-62.903q-0.2049-2.2539 1.0245-1.6392 5.3273 2.0489 6.9664 3.2783 1.4343 0.81959-0.20489 2.049-1.4343 0.81958-1.844 2.0489-0.81959 2.4588-0.81959 9.835v4.7126q0 14.343 0.4098 23.973 0.20489 1.0245-0.4098 1.4343-1.4343 1.2294-4.0979 3.4832-1.2294 1.2294-1.2294-1.4343 0.61469-16.392 0.61469-27.456v-4.7126q0-9.835-0.40979-15.572zm2.0489-35.652q0.81958 0.81958 1.4343 1.6392 2.049 5.1224 1.4343 9.6301-0.61469 3.6881-1.8441 3.6881-1.0245 0.40979-3.893-2.6636-3.6881-4.5077-10.859-9.4252-7.3762-5.1224-26.841-12.703-2.2538-0.81959-1.844-2.6636 0.81958-1.6392 3.4832-0.40979 7.3762 1.2294 23.153 6.5566 6.9664 2.0489 11.884 4.5077l3.893 1.844zm-84.62-13.93q1.8441-1.2294 2.6636-0.40979 7.3762 4.9175 10.655 7.9909 1.0245 1.2294 0.81958 2.0489-0.40979 0.61469-2.4587 0.40979-2.8685-0.40979-7.1713 0.2049-2.8685 0.40979-12.089 4.7126-13.933 5.942-31.144 10.45-2.4587 0.61469-3.0734-1.4343-0.61468-2.049 1.8441-2.8685 20.08-7.9909 39.955-21.104zm-35.652-4.5077q-0.40979 2.6636-1.0245 5.3273-2.6636 8.6056-6.5566 12.499-3.2783 2.2538-5.942 2.049-2.6636-0.61469-3.893-2.049-1.0245-2.049-0.81958-4.7126 0.2049-2.4588 3.2783-4.5077 4.3028-3.0734 7.5811-8.1958 3.0734-5.5322 4.5077-13.728 0.2049-1.844 1.6392-1.6392 1.4343 0 1.6392 2.0489 0.2049 4.3028 0 8.1958h56.961v-0.40978q-0.81958-3.4832-2.0489-6.1468-1.4343-3.4832-3.4832-5.5322-0.61468-1.2294 0.61468-2.049l3.893 0.81957q5.3273 2.2538 7.3762 4.0979 2.2538 2.049 2.4587 3.2783 0 3.4832-1.844 5.942h49.994q2.049 0 2.8685-0.81957l5.3273-6.5566q1.0245-1.0245 1.8441-1.0245 0.81957 0.20489 1.6392 1.0245 5.7371 5.1224 11.474 11.474 0.81957 1.0245 0.61469 1.844-0.61469 1.0245-2.6636 0.81958-4.5077 0-9.0154 3.2783-4.0979 2.2538-6.9664 4.7126-3.893 4.0979-5.7371 3.2783-2.049-0.81958 0.81958-5.5322 2.6636-4.5077 4.3028-7.786h-118.84zm59.829 110.23q0.61469 0 1.2294-0.81957l3.6881-3.2783q0.81957-0.81958 1.4343 0 2.6636 1.8441 4.5077 4.0979 1.2294 1.4343 0.40979 2.4587-0.40979 0.61469-1.844 0.61469h-13.113q-4.3028 0.2049-7.5811 0.81957-0.81958 0.2049-1.0245-0.61467-0.40979-1.8441-2.0489-3.0734-0.61469-0.81958-0.40979-1.2294 0.40979-0.20488 1.2294 0.20491 3.893 0.81957 8.6056 0.81957h4.9175zm-32.169 6.5566q4.3028-2.6636 7.3762-3.893 1.4343-0.81958 1.8441 0.20489 0.40979 1.2294-1.0245 1.844-5.3273 3.6881-11.679 12.908-1.0245 1.0245-1.4343-0.2049-0.81958-2.4588-3.0734-4.0979-0.81958-1.0245 0-1.4342 3.0734-2.6636 3.0734-4.9175v-16.596q-2.4587 0-5.5322 0.61469-0.81958 0.40979-1.2294-0.61469-0.40979-1.844-1.8441-3.0734-0.81958-0.61469-0.40979-1.0245 0.40979-0.4098 1.0245 0 3.893 0.81957 7.9909 0.81957v-11.884q-0.20489-4.0979-0.40979-7.1713-0.20489-1.6392 0.81958-1.4342 5.5322 1.844 7.3762 2.6636 1.4343 1.0245-0.20489 1.6392-1.6392 0.81957-2.049 1.844-0.61469 1.4343-0.61469 2.4588v8.1958q7.786-8.1958 10.45-15.162 0.61468-1.0245 1.2294-0.40979 3.6881 2.8685 6.5566 5.3273 0.61468 0.81958 0.40979 1.2294-0.61469 0.4098-1.8441 0.2049-2.049-0.4098-6.3517 2.8685-5.5322 4.7126-10.45 8.1958v1.4343h9.4252q0.61468 0 1.2294-0.61468l3.6881-4.3028q0.61468-0.61468 1.4343 0 2.6636 2.6636 4.5077 4.9175 1.0245 1.4343 0.40979 2.4588-0.61468 0.61468-1.844 0.81957h-10.655q2.4587 5.3273 5.942 10.655 3.0734 3.893 8.8105 7.9909 0.61469 0.20489 0.2049 1.0245-0.40979 0.81958-1.6392 0.40979-3.4832 1.2294-4.3028 2.8685-0.40979 0.61469-1.0245-0.20489-4.5077-7.786-7.3762-13.728-2.049-4.9175-2.8685-9.0154h-5.942v16.187zm8.4007 37.086q-3.0734 0-5.5322-1.2295-2.4587-1.2293-2.4587-4.7125v-13.728q0-3.0734-0.61468-5.7371 0-1.2294 1.4343-1.0245 9.4252 1.4343 12.703 2.4588 1.4343 0.4098 0 0.8196-3.2783 1.2293-3.893 1.6391-1.2294 0.6147-1.2294 1.8441v10.654q0.2049 1.8441 1.2294 2.2539 1.2294 0.8196 3.2783 0.8196h45.487q2.4587 0 3.893-0.4098 1.6392-0.6147 2.6636-2.4588 2.8685-2.8686 4.9175-10.04 0.20489-2.4587 2.049-2.2538 2.2538 0.2049 2.049 2.4588-0.81958 7.3762 0.61468 10.654 1.0245 1.8441 2.8685 2.4587 0.61467 0.2049 0.40979 0.6147-1.6392 2.4588-4.5077 3.4832-3.2783 1.4344-8.6056 1.4344h-56.756zm76.631-18.031q-2.2538-2.049-1.4343-3.2784 0.40979-1.2293 2.2538-0.2049 12.089 4.5077 18.031 8.1958 4.0979 2.4588 4.3028 4.5077 0.20489 1.6392-2.2538 4.0979-1.8441 1.8441-3.6881 1.6392-1.6392 0-1.844-1.6392-2.2538-4.9175-6.1468-7.786-3.893-3.4832-9.2203-5.5321zm-50.609-5.942q-1.6392-1.2294-1.0245-2.8686 1.4343-0.4098 2.6636 0.4098 9.4252 4.7126 14.752 7.3763 3.2783 1.6391 3.893 3.2783 0.40979 1.6392-1.6392 4.0978-2.4587 0.6148-4.5077-0.4097-3.893-2.0489-6.3517-5.9419-3.4832-2.6637-7.786-5.942zm-48.15 1.844q1.0245-1.4342 2.4587-1.4342 2.049 0 2.2538 1.6391-0.40979 5.942-3.6881 10.45-3.6881 4.9176-8.6056 6.9665-2.4587 1.0245-4.9175 0.8197-2.049-0.4099-3.0734-1.0246-0.81958-0.8196-0.40979-2.0489 0.40979-1.0246 2.8685-1.8441 3.6881-1.6391 7.1713-4.9175 3.893-3.2783 5.942-8.6056zm-17.006-87.9v14.138h11.884v-14.138h-11.884zm0 20.694v14.752h11.884v-14.752h-11.884zm16.187 46.716q0 5.3273-1.2294 10.245-1.4343 3.0734-3.0734 2.8685-0.61468 0.81958-0.81958 0-0.61468-2.2538-2.4587-4.0979-1.6392-2.6636-6.7615-5.5322l-0.61468-0.61469q0-2.0489 0.81958-1.844 4.0979 0.40979 5.942 1.0245 2.8685 0.61469 3.2783-0.61469 0.61468-0.61468 0.61468-4.5077v-22.129h-12.089q0 5.3273-0.2049 9.4252-0.40979 10.245-3.0734 18.85-1.6392 5.942-4.3028 13.318-1.2294 1.6392-2.4587 0.2049-0.61468-0.8196 0.2049-2.8686 2.4587-7.786 3.6881-13.728 1.4343-7.9909 1.8441-13.728 0.40979-10.04 0.40979-23.768v-24.178q0-10.45-0.2049-14.343-0.20489-0.81959 0-1.6392 0.2049-0.61468 1.0245 0 1.0245 0.61469 2.2538 3.4832h12.908q0.61468 0 0.61468-0.2049l1.6392-3.0734q0.2049-0.81958 0.40979-0.81958 0.2049 0 0.61469 0.81958 1.8441 1.4343 3.4832 6.7615 0.40979 1.8441 0 2.6636-2.049 3.2783-2.2538 4.3028-0.2049 1.0245-0.2049 1.8441v61.878zm38.315-36.062q0.2049-2.8685 0.2049-5.7371v-7.786q0-3.4832-0.2049-5.942 0-1.2294 0.4098-1.2294 0.40979-0.40978 1.4343 0.81958 1.4343 1.6392 3.2783 3.2783h12.294q0.81958 0.2049 1.0245-0.2049l2.0489-2.8685q0.81958-1.6392 1.8441-0.40979 2.2538 2.2538 4.3028 5.1224 0.61468 1.0245 0.61468 1.2294l-0.40979 0.4098q-2.049 1.4343-2.2538 2.0489-0.20489 0.40979-0.20489 0.81958v2.8685q0 1.4343 0.61468 4.3028 0 1.2294-0.61468 1.6392-3.6881 2.4587-4.5077 2.4587-0.61469 0-0.61469-1.4343v-2.6636h-13.728v1.844q-0.20489 1.2294-0.61467 1.2294-1.0245 0.61468-3.2783 1.6392l-1.6392-1.4343zm54.297-8.4007q-0.20489-0.61469-0.20489-1.0245-1.4343-4.3028-3.4832-7.1713-0.61468-1.2294 0-2.049 0.81958-0.81959 1.844 0.61468 5.1224 4.9175 7.3762 9.4252 1.6392 3.0734 1.6392 4.7126-0.61469 2.8685-2.2538 4.0979-1.6392 1.4343-2.2538 1.2294-0.61469-0.20489-1.0245-2.8685-0.40979-2.4587-0.81957-4.3028-4.7126 0.40979-9.4252 1.4343-5.737 1.4343-10.655 3.4832-1.0245 0.40979-1.2294-0.4098-0.61469-2.4587-1.4343-4.9175-0.40978-1.0245 0.40979-1.4343 1.8441-0.61469 2.4588-1.4343 2.6636-2.6636 6.9664-9.0154 1.6392-3.0734 3.2783-5.5322-2.4588 0.40979-4.5077 1.0245-3.6881 1.0245-6.9664 2.6636-0.81958 0.40979-1.0245-0.40979-0.81959-2.2538-1.6392-4.3028-0.40979-0.81959 0.2049-1.2294 1.2294-0.81958 1.844-1.6392 1.6392-2.4588 4.3028-7.786 3.2783-7.3762 5.1224-13.318 0.20489-0.81959 0.40979-1.0245 0.40979-0.2049 1.2294 0.61469 3.0734 3.4832 4.5077 5.3273 0.61469 0.61467 0.40979 1.0245-0.20489 0.61469-0.81958 0.61469-1.0245 0-1.6392 1.2294-2.6636 2.6636-5.7371 7.3762-2.6636 4.3028-5.1224 6.9664-0.40979 0.81958-0.40979 1.0245 0.20489 0.20489 1.0245 0 4.5077-0.20488 10.45-1.0245 2.2538-4.0979 3.893-7.786 0.40979-1.0245 0.81958-1.0245 0.61468 0 1.0245 1.0245 3.0734 4.5077 4.3028 6.5566 0.61469 0.81959 0.2049 1.2294-0.2049 0.40979-0.81959 0.20489-1.0245 0-2.0489 1.2294-4.0979 3.2783-9.0154 9.0154-4.3028 5.1224-7.9909 8.4007-0.61469 0.81957-0.61469 1.0245 0.20489 0.40979 1.6392 0.40979 6.7615-1.0245 15.777-2.2538zm-48.765-5.3273v7.5811h13.728v-7.5811h-13.728zm8.4007-11.474q1.4342-0.2049 1.844-0.2049 0.61468-0.40978 1.4343-1.0245l2.049-2.4588q0.61469-0.81958 1.2294 0 3.4832 2.4588 6.3518 3.4832 1.2294 1.0245 1.0245 1.8441 0 1.0245-1.844 1.0245h-16.801q-3.0734 0-6.7615 1.0245-0.40979 0.20489-0.61469-0.2049-1.4343-1.4343-2.4587-3.4832-0.61469-1.2294 0.81957-1.0245 6.5566 0.81957 7.3762 1.0245h6.3518zm0-8.4007q1.4342-0.20489 1.844-0.20489 0.61468-0.4098 1.4343-1.0245l2.049-2.4587q0.61469-0.81958 1.2294 0 3.4832 2.4587 6.3518 3.4832 1.2294 1.0245 1.0245 1.8441 0 1.0245-1.844 1.0245h-16.801q-3.0734 0-6.7615 1.0245-0.40979 0.20489-0.61469-0.20488-1.4343-1.4343-2.4587-3.4832-0.61469-1.2294 0.81957-0.81959 6.5566 0.61469 7.3762 0.81959h6.3518zm-9.2203-5.3273q-2.8685 0-6.5566 0.81959-0.4098 0.20489-0.61469-0.2049-1.4343-2.6636-2.4587-3.4832-0.61468-1.2294 0.81958-0.81958 6.5566 0.81958 7.1713 0.81958h8.4007q0-0.61469-0.20489-1.4343-0.61469-3.4832-1.6392-6.3517-0.40978-1.0245 0-1.8441 0.81958-1.0245 1.8441 0.40979 5.3273 3.6881 5.1224 4.9175-0.2049 3.0734-1.8441 4.3028h3.0734q1.4343 0 2.049-0.40979 0.40979-0.2049 1.2294-1.0245l2.2538-2.6636q0.61468-0.61469 1.4343 0 3.6881 2.8685 6.7615 4.0979 1.2294 0.81957 1.0245 1.6392 0 1.0245-1.844 1.2294h-26.022zm-14.138 29.915q-0.20489-0.61468-0.40979-1.0245-1.4343-4.0979-3.0734-6.5566-0.61468-1.2294 0-2.049 0.61468-1.0245 1.8441 0.40979 4.5077 4.5077 6.7615 8.4007 1.6392 2.8686 1.4343 4.0979-0.2049 3.0734-2.049 4.3028-1.6392 1.4343-2.2538 1.4343-0.61468-0.20489-0.81958-2.8685-0.40979-1.8441-0.81958-3.4832-4.7126 0.81959-9.4252 2.049-5.7371 1.4343-10.655 4.0979-1.0245 0.20488-1.2294-0.4098-0.61468-2.6636-1.6392-4.7126-0.40979-1.2294 0.40979-1.4343 1.6392-1.0245 2.6636-1.8441 2.4587-2.8685 6.5566-9.4252 1.8441-3.4832 3.4832-6.3518-2.049 0.4098-4.0979 1.2294-3.6881 1.0245-6.7615 2.6636-0.81958 0.61467-1.0245-0.20491-0.61468-2.2538-1.6392-4.3028-0.40979-1.0245 0.2049-1.4343 1.2294-0.81958 1.8441-1.4343 1.6392-2.4587 4.0979-7.786 3.4832-7.1713 5.3273-13.113 0-0.81958 0.40979-0.81958 0.40979-0.2049 1.0245 0.61469 3.2783 3.6881 4.7126 5.3273 0.40979 0.81957 0.2049 1.0245 0 0.61468-0.61468 0.61468-0.81958 0-1.8441 1.2294-2.6636 2.6636-5.7371 7.1713-2.6636 4.0979-4.9175 6.7615-0.61468 0.61468-0.40979 0.81958 0 0.20489 0.81958 0.20489 4.3028-0.61468 10.04-1.6392 2.049-4.0979 3.4832-7.5811 0.40979-1.0245 0.81958-1.0245t1.0245 0.81958q3.0734 4.3028 4.5077 6.3517 0.40979 0.81958 0.2049 1.2294-0.2049 0.4098-0.81958 0.4098-1.0245 0-2.049 1.0245-4.0979 3.6881-8.8105 9.835-4.3028 5.5322-7.9909 9.2203-0.61469 0.61468-0.61469 1.0245 0.2049 0.40979 1.4343 0.20489 7.1713-1.2294 16.392-3.0734zm-80.739 6.89q-5.5322 0-12.499 1.4343-1.0245 0.20489-1.2294-0.40979-2.6636-3.893-4.7126-7.1713-1.2294-2.049 1.4343-1.4343 12.499 1.0245 13.933 1.2294h6.1468q1.4343-0.81958 2.049-1.0245l4.7126-5.3273q1.2294-1.6392 2.6636-0.4098 6.7615 4.9175 12.499 10.04 1.4343 1.0245 0.2049 1.8441-5.942 3.893-6.1469 4.5077-0.61468 1.2294-0.61468 4.5077v57.575q-0.2049 3.893 2.4587 6.3518 7.9909 7.9909 21.514 12.908 14.957 5.3272 32.783 5.1223l62.698-0.6147q12.294 0 35.242-2.4587 2.2538-0.4098 6.7615-1.2294 1.2294-0.2049 1.2294 1.2294 0.2049 1.6392-2.4587 2.4587-3.893 1.0245-6.9664 3.6881-3.4832 3.0735-4.3028 6.9665-0.61469 1.4342-2.6636 1.2293-11.269-0.8195-24.383-0.6146l-63.313 0.6146q-17.006 0.4098-33.193-7.1713-17.006-7.9909-26.431-20.49-2.049-2.4587-2.8685-2.4587-0.81958 0.2048-2.049 1.6391-6.3517 11.269-11.474 17.416-3.893 3.893-7.1713 10.859-1.0245 1.6391-1.8441 1.844-1.0245 0-1.2294-1.2293-1.8441-5.5321-6.3517-10.655-1.2294-1.6391 0.81958-2.4586 11.884-5.5322 18.645-14.343 5.3273-5.3273 4.7126-8.6057v-65.362h-8.6056zm-12.498-80.52q-0.81958-1.4343 0-2.6636 1.2294-1.2294 3.2783 0.61467 10.655 6.9664 17.416 15.162 4.3028 4.9175 4.5077 9.4252 0.2049 4.0979-3.0734 9.835-2.6636 4.7126-5.1224 4.5077-2.049-0.40979-2.2538-4.3028-1.6392-10.655-6.1468-18.645-4.0979-7.3762-8.6056-13.933zm125.81 129.49q-1.2294 3.6881-7.786 5.3273-0.81958 0.2049-0.81958-0.2049-0.61467-2.4587-1.844-3.4832-1.6392-1.2294-5.942-2.2538-1.4343-0.2049-1.4343-1.2294 0.20489-1.0245 1.4343-0.81959 10.45 1.0245 12.089-0.81958 2.049-1.6392 3.0734-4.9175 0.81958-7.1713 1.4343-10.245h-20.49q-0.81958 1.2294-1.2294 1.6392-0.40979 0.81958-1.0245 0.2049-1.4343-2.049-4.3028-3.2783-0.81959-0.61469 0-1.0245 0.81958-0.61468 1.8441-1.4343 0.40979-0.40979 0.81958-1.0245 2.4587-4.7126 1.844-10.655 0-1.0245 0.81958-0.81958 3.2783 1.2294 6.9664 3.4832 1.0245 0.40978 1.0245 1.0245 0 0.61469-1.2294 1.0245-1.6392 0.61468-2.2538 2.2538-0.40979 0.81957-2.049 3.4832-0.20489 1.0245-0.40979 2.049h9.4252l3.6881-17.416h-6.7615q-4.3028 0.2049-7.5811 0.81958-0.81958 0.2049-1.0245-0.61468-0.40979-1.844-2.0489-3.2783-0.81958-0.61469-0.40979-1.0245 0.40979-0.40979 1.2294 0 3.893 1.0245 8.6056 1.0245h7.3762q0.61468-0.2049 1.0245-0.61469l1.4343-2.0489q0.61469-1.0245 1.6392-0.2049 2.4587 1.844 4.7126 4.0979 0.81958 0.81957 0.40979 1.4343-0.20489 0.40979-1.2294 0.61469-1.4343 0.20489-2.0489 0.61468-0.4098 0.40979-0.61469 1.2294l-3.2783 15.367h2.049q1.2294-0.2049 1.6392-0.61468l2.2538-3.2783q0.61469-1.0245 1.6392 0 3.6881 3.2783 5.942 5.7371 0.40978 0.81959-0.20489 1.0245-3.2783 1.0245-3.4832 2.6636-1.844 12.703-4.9175 16.187z"/>
			</g>
		<animateTransform attributeName="transform" begin="0s" dur="5s" type="rotate" from="0 100 100" to="360 100 100" repeatCount="indefinite"/>
	</g>
	</svg>